# xmcd CD database file
#
# Track frame offsets:
#	150
#	26227
#	49925
#	64025
#	82625
#	111050
#	132800
#	154100
#	172475
#	195425
#	219732
#	234200
#	262475
#
# Disc length: 3727 seconds
#
# Revision: 0
# Processed by: cddbd v1.5.1PL0 Copyright (c) Steve Scherf et al.
# Submitted via: CDex 1.51
#
DISCID=b70e8d0d
DTITLE=Trudy Kerr - Trudy
DYEAR=1998
DGENRE=Jazz
TTITLE0=Just One Of Those Things
TTITLE1=Get Out Of Town
TTITLE2=I Can't Believe That You're In Love With Me
TTITLE3=A Touch Of Paradise
TTITLE4=My Foolish Heart
TTITLE5=The Song Is You
TTITLE6=Stars In Your Eyes
TTITLE7=Chega De Sandade (No More Blues)
TTITLE8=Go Away Little Boy
TTITLE9=Music
TTITLE10=There's No Such Thing As Love
TTITLE11=Since I Fell For You
TTITLE12=As Long As Your Eyese Are Blue
EXTD=YEAR: 1998
EXTT0=
EXTT1=
EXTT2=
EXTT3=
EXTT4=
EXTT5=
EXTT6=
EXTT7=
EXTT8=
EXTT9=
EXTT10=
EXTT11=
EXTT12=
PLAYORDER=
